<svg height="512pt" viewBox="-6 0 512 512.00037" width="512pt" xmlns="http://www.w3.org/2000/svg"><path d="m494.054688 324.769531c4.480468-18.523437 6.871093-37.867187 6.871093-57.769531 0-135.308594-109.691406-245-245-245-135.3125 0-245.003906 109.6875-245.003906 245 0 30.535156 5.605469 59.757812 15.8125 86.71875 17.625 5.847656 299.160156 96.363281 467.320313-28.949219zm0 0" fill="#2299f2"/><path d="m417.402344 338.339844c-2.171875-19.917969-18.109375-36.019532-38.003906-38.382813-3.933594-.464843-7.78125-.40625-11.476563.117188-4.421875.625-8.234375-2.976563-8.230469-7.4375 0-.035157 0-.066407 0-.097657 0-52.070312-42.210937-94.28125-94.28125-94.28125-39.335937 0-73.039062 24.089844-87.175781 58.316407-1.6875 4.082031-6.339844 6.171875-10.414063 4.46875-7.742187-3.234375-16.230468-5.023438-25.144531-5.023438-26.804687 0-49.828125 16.132813-59.925781 39.214844-1.347656 3.078125-4.589844 4.839844-7.9375 4.558594-2.496094-.210938-5.054688-.207031-7.65625.039062-21.765625 2.039063-38.996094 20.453125-39.53125 42.308594-.597656 24.570313 19.140625 44.679687 43.578125 44.679687h302.878906c25.683594 0 46.179688-22.214843 43.320313-48.480468zm0 0" fill="#abe4fe"/><path d="m211.707031 338.085938c7.296875-5.121094 15.277344-8.527344 23.46875-10.328126 4.316407-.945312 6.925781-5.328124 5.960938-9.636718-8.085938-36.140625 5.671875-75.21875 37.871093-97.808594 8.386719-5.882812 17.394532-10.203125 26.6875-13.03125-12.214843-5.785156-25.871093-9.023438-40.285156-9.023438-39.335937 0-73.039062 24.089844-87.175781 58.316407-1.6875 4.082031-6.339844 6.171875-10.414063 4.46875-7.742187-3.234375-16.230468-5.023438-25.144531-5.023438-26.804687 0-49.828125 16.132813-59.925781 39.214844-1.347656 3.078125-4.589844 4.839844-7.9375 4.558594-2.496094-.207031-5.054688-.207031-7.65625.039062-21.765625 2.039063-39 20.453125-39.53125 42.308594-.601562 24.570313 19.136719 44.679687 43.574219 44.679687h112.867187c1.394532-18.882812 10.929688-37.011718 27.640625-48.734374zm0 0" fill="#82c6f9"/><path d="m494.652344 322.335938c-3.109375-1.734376-6.59375-2.863282-10.296875-3.210938-1.582031-.148438-3.136719-.148438-4.652344-.023438-2.035156.171876-4.003906-.898437-4.820313-2.769531-6.136718-14.023437-20.125-23.824219-36.40625-23.824219-5.417968 0-10.574218 1.089844-15.277343 3.054688-2.476563 1.03125-5.300781-.234375-6.328125-2.714844-8.585938-20.796875-29.0625-35.429687-52.957032-35.429687-31.636718 0-57.28125 25.644531-57.28125 57.277343v.0625c.003907 2.710938-2.3125 4.898438-5 4.515626-2.246093-.316407-4.582031-.351563-6.972656-.070313-12.085937 1.4375-21.769531 11.21875-23.085937 23.316406-1.738281 15.957031 10.714843 29.453125 26.320312 29.453125h179.453125c7.457032-15.703125 13.304688-32.316406 17.304688-49.636718zm0 0" fill="#d9f5ff"/><path d="m394.574219 468.988281c19.039062-13.09375 36.144531-28.789062 50.777343-46.605469-48.660156 11.285157-113.769531 8.144532-186.300781-43.859374-99.4375-71.292969-184.925781-50.75-233.1875-27.09375 9.582031 26.105468 23.488281 50.125 40.839844 71.195312 16.75 4.707031 229.816406 63.6875 327.871094 46.363281zm0 0" fill="#52b0f5"/><path d="m233.53125 460.164062c2.289062-18.472656-17.601562-30.621093-17.601562-30.621093s13.914062-18.660157-9.585938-42.160157-4.320312-40.992187-4.320312-40.992187c-74.679688-30.921875-137.417969-13.953125-176.160157 5.039063 9.582031 26.105468 23.488281 50.125 40.839844 71.199218 9.734375 2.734375 85.664063 23.765625 166.828125 37.535156zm0 0" fill="#2299f2"/><path d="m65.652344 421.328125c44.917968 55.316406 113.460937 90.671875 190.273437 90.671875 52.332031 0 100.824219-16.417969 140.632813-44.371094-40.226563-.246094-87.074219-6.609375-137.507813-24.953125-76.125-27.691406-144.066406-28.074219-193.398437-21.347656zm0 0" fill="#fcdb75"/><path d="m239.003906 511.402344c-11.914062-12.089844-14.800781-28.273438-7.898437-43.023438 10.691406-22.859375-14.851563-38.632812-15.164063-38.824218-58.558594-14.441407-110.484375-13.652344-150.289062-8.226563 41.59375 51.21875 103.441406 85.300781 173.351562 90.074219zm0 0" fill="#fbc840"/><path d="m486.882812 348.894531c-49.078124-22.476562-131.96875-39.097656-227.832031 29.628907 72.53125 52.007812 137.644531 55.144531 186.300781 43.855468 17.816407-21.695312 31.964844-46.503906 41.53125-73.484375zm0 0" fill="#2299f2"/><path d="m486.882812 348.894531c-49.078124-22.476562-131.96875-39.097656-227.832031 29.628907 72.53125 52.007812 137.644531 55.144531 186.300781 43.855468 17.816407-21.695312 31.964844-46.503906 41.53125-73.484375zm0 0" fill="#2299f2"/><path d="m368.34375 381.332031c0-23.121093 13.761719-43.019531 33.535156-51.976562-41.386718-.589844-90.148437 11.398437-142.828125 49.167969 48.558594 34.816406 93.789063 47.726562 132.984375 49.074218-14.34375-10.363281-23.691406-27.21875-23.691406-46.265625zm0 0" fill="#1588e8"/><path d="m260.59375 6.8125c-17.789062 18.292969-69.324219 77.597656-76.441406 157.066406 0 0 65.464844-54.804687 81.269531-154.625.433594-2.738281-2.894531-4.429687-4.828125-2.441406zm0 0" fill="#abf222"/><path d="m204.867188 88.164062c-10.148438 22.117188-18.203126 47.65625-20.714844 75.714844 0 0 25.574218-21.410156 48.609375-61.835937-11.429688 8.253906-27.570313.332031-27.894531-13.878907zm0 0" fill="#83d912"/><path d="m356.089844 134.164062c-69.464844-37.074218-146.238282-.664062-170.351563 12.796876-4.003906 2.238281-4.800781 7.851562-1.796875 10.488281 16.4375 14.410156 39.921875 17.792969 61.734375 8.167969 22.238281-9.808594 53.203125-18.984376 88.476563-16.714844 6.75.433594 13.625-.578125 20.207031-2.984375 5.160156-1.886719 6.25-9.34375 1.730469-11.753907zm0 0" fill="#83d912"/><path d="m274.257812 118.671875c-39.949218 3.546875-73.90625 20.128906-88.519531 28.289063-4.003906 2.238281-4.800781 7.851562-1.796875 10.488281 16.4375 14.410156 39.921875 17.792969 61.738282 8.167969 9.230468-4.070313 19.96875-8.03125 31.890624-11.109376-16.445312-5.117187-18.6875-27.691406-3.3125-35.835937zm0 0" fill="#5bbf02"/><path d="m113.820312.675781c69.226563 38.824219 80.042969 123.78125 81.71875 151.566407.277344 4.613281-4.058593 8.34375-7.929687 7.226562-21.164063-6.125-36.796875-24.222656-40.484375-47.96875-3.757812-24.207031-12.796875-55.480469-33.890625-84.191406-4.035156-5.496094-6.910156-11.878906-8.449219-18.777344-1.203125-5.402344 4.535156-10.378906 9.035156-7.855469zm0 0" fill="#83d912"/><path d="m169.988281 58.984375c1.195313 17.261719-18.769531 27.082031-31.757812 16.441406 4.441406 12.871094 7.207031 25.1875 8.894531 36.074219 3.6875 23.746094 19.320312 41.84375 40.488281 47.96875 3.867188 1.117188 8.203125-2.609375 7.925781-7.226562-1.042968-17.269532-5.621093-56.621094-25.550781-93.257813zm0 0" fill="#5bbf02"/><path d="m353.746094 238.101562c-44.667969-81.761718-135.269532-90.527343-164.808594-91.144531-4.910156-.105469-8.640625 5.332031-7.257812 9.953125 7.566406 25.292969 27.542968 43.285156 52.902343 46.535156 25.851563 3.316407 59.460938 12.664063 90.964844 36.722657 6.03125 4.601562 12.941406 7.753906 20.332031 9.261719 5.789063 1.183593 10.773438-6.011719 7.867188-11.328126zm0 0" fill="#5bbf02"/><path d="m265.460938 195.660156c0-12.0625 8.484374-22.140625 19.808593-24.605468-38.679687-20.398438-78.558593-23.726563-96.332031-24.097657-4.910156-.105469-8.640625 5.328125-7.257812 9.953125 7.566406 25.292969 27.542968 43.285156 52.902343 46.535156 11.050781 1.417969 23.519531 3.941407 36.632813 8.242188-3.59375-4.355469-5.753906-9.9375-5.753906-16.027344zm0 0" fill="#58aa02"/><path d="m273.304688 319.054688c4.234374-95.417969-60.632813-151.898438-82.824219-168.355469-3.691407-2.734375-9.070313-.003907-10.183594 4.773437-6.066406 26.148438.726563 52.613282 18.507813 69.117188 18.128906 16.824218 39.339843 43.09375 52.070312 81.066406 2.4375 7.265625 6.222656 13.742188 11.140625 19.042969 3.855469 4.152343 11.011719.558593 11.289063-5.644531zm0 0" fill="#83d912"/><path d="m217.625 243.828125c0-12.800781 10.375-23.175781 23.171875-23.175781 4.347656 0 8.410156 1.199218 11.886719 3.28125-19.910156-38.8125-48.816406-63.308594-62.203125-73.234375-3.6875-2.734375-9.070313-.003907-10.179688 4.773437-6.066406 26.148438.722657 52.613282 18.507813 69.117188 6.078125 5.644531 12.503906 12.355468 18.839844 20.207031-.011719-.320313-.023438-.644531-.023438-.96875zm0 0" fill="#5bbf02"/><path d="m28.175781 59.957031c92.941407-6.464843 149.179688 65.117188 165.621094 89.660157 2.734375 4.078124.171875 10.148437-4.46875 11.476562-25.378906 7.265625-51.304687.140625-67.714844-19.464844-16.730469-19.984375-42.722656-43.25-79.96875-56.8125-7.128906-2.59375-13.511719-6.71875-18.765625-12.125-4.117187-4.238281-.746094-12.316406 5.296875-12.734375zm0 0" fill="#5bbf02"/><path d="m193.796875 149.617188c-10.242187-15.292969-35.933594-48.832032-76.316406-70.390626 1.917969 3.554688 3.007812 7.617188 3.007812 11.9375 0 13.585938-10.757812 24.65625-24.222656 25.164063 10.09375 8.390625 18.496094 17.121094 25.347656 25.304687 16.410157 19.601563 42.335938 26.726563 67.714844 19.464844 4.640625-1.332031 7.203125-7.402344 4.46875-11.480468zm0 0" fill="#58aa02"/><path d="m3.367188 171.351562c78.078124-55.011718 160.621093-30.835937 186.445312-21.015624 4.292969 1.632812 4.894531 7.636718 1.46875 11.148437-18.75 19.207031-44.699219 27.753906-68.1875 21.679687-23.945312-6.195312-57.503906-9.898437-96.347656-.148437-7.433594 1.867187-14.929688 2.167969-22.042969.882813-5.574219-1.003907-6.410156-8.96875-1.335937-12.546876zm0 0" fill="#83d912"/><path d="m189.816406 150.335938c-15.914062-6.046876-53.359375-17.539063-98.019531-12.613282 7.835937 3.71875 13.253906 11.699219 13.253906 20.945313 0 8.105469-4.167969 15.238281-10.46875 19.378906 10.554688 1.085937 20.125 2.945313 28.511719 5.117187 23.488281 6.074219 49.4375-2.472656 68.1875-21.679687 3.429688-3.511719 2.824219-9.515625-1.464844-11.148437zm0 0" fill="#5bbf02"/><path d="m192.660156 150.859375c-5.46875-3.59375-12.832031-2.050781-16.804687 3.144531-21.824219 28.519532-84.222657 121.03125-106.738281 271.496094 13.808593 16.257812 29.699218 30.6875 47.261718 42.878906 2.929688-162.851562 60.453125-269.1875 79.992188-300.714844 3.515625-5.671874 1.894531-13.121093-3.710938-16.804687zm0 0" fill="#98341a"/><path d="m192.660156 150.859375c-5.46875-3.59375-12.832031-2.050781-16.804687 3.144531-12.628907 16.503906-38.847657 54.4375-63.058594 112.628906 12.796875-7.996093 29.910156-1.25 33.625 13.5625 18.050781-57.15625 39.464844-95.617187 49.949219-112.53125 3.515625-5.671874 1.894531-13.121093-3.710938-16.804687zm0 0" fill="#872815"/><g fill="#aa3d27"><path d="m161.484375 245.839844c-1.128906 0-2.277344-.25-3.363281-.769532l-29.035156-13.929687c-3.878907-1.859375-5.511719-6.511719-3.652344-10.390625s6.515625-5.515625 10.390625-3.65625l29.035156 13.929688c3.878906 1.859374 5.511719 6.515624 3.652344 10.394531-1.339844 2.792969-4.125 4.421875-7.027344 4.421875zm0 0"/><path d="m142.777344 299.921875c-.898438 0-1.804688-.15625-2.695313-.484375l-35.054687-12.929688c-4.039063-1.488281-6.101563-5.964843-4.613282-10.003906 1.488282-4.035156 5.96875-6.097656 10-4.613281l35.058594 12.929687c4.035156 1.488282 6.101563 5.96875 4.613282 10.003907-1.160157 3.148437-4.140626 5.097656-7.308594 5.097656zm0 0"/><path d="m129.917969 351.742188c-.730469 0-1.472657-.105469-2.207031-.320313l-40.246094-11.882813c-4.128906-1.214843-6.484375-5.546874-5.265625-9.671874 1.214843-4.128907 5.550781-6.484376 9.671875-5.269532l40.246094 11.882813c4.128906 1.21875 6.484374 5.550781 5.265624 9.675781-1 3.390625-4.101562 5.585938-7.464843 5.585938zm0 0"/><path d="m120.246094 414.109375c-.257813 0-.515625-.011719-.78125-.039063l-47.144532-4.6875c-4.28125-.425781-7.40625-4.238281-6.980468-8.519531.425781-4.28125 4.226562-7.414062 8.519531-6.980469l47.148437 4.6875c4.28125.425782 7.40625 4.238282 6.980469 8.519532-.402343 4.019531-3.789062 7.019531-7.742187 7.019531zm0 0"/></g><path d="m193.285156 153.558594c0 13.910156-11.273437 25.183594-25.183594 25.183594-13.910156 0-25.1875-11.273438-25.1875-25.183594s11.277344-25.183594 25.1875-25.183594c13.910157 0 25.183594 11.273438 25.183594 25.183594zm0 0" fill="#abf222"/><path d="m225.386719 170.476562c0 13.90625-11.277344 25.183594-25.183594 25.183594-13.910156 0-25.1875-11.277344-25.1875-25.183594 0-13.910156 11.277344-25.1875 25.1875-25.1875 13.90625 0 25.183594 11.277344 25.183594 25.1875zm0 0" fill="#abf222"/><path d="m209.335938 177.390625c-8.863282 0-16.050782-7.183594-16.050782-16.050781 0-7.476563 5.125-13.746094 12.046875-15.527344-1.65625-.34375-3.371093-.523438-5.128906-.523438-13.910156 0-25.183594 11.277344-25.183594 25.183594 0 13.910156 11.273438 25.1875 25.183594 25.1875s25.183594-11.277344 25.183594-25.1875c0-1.757812-.179688-3.472656-.523438-5.128906-1.78125 6.925781-8.046875 12.046875-15.527343 12.046875zm0 0" fill="#83d912"/></svg>