<svg height="512pt" viewBox="-11 0 512 512.00025" width="512pt" xmlns="http://www.w3.org/2000/svg"><path d="m26.914062 367.730469c-17.160156-33.214844-26.660156-70.277344-26.91015575-110.167969-.84765625-135.703125 109.57421875-246.738281 245.31640575-246.5625 135.085938.175781 246.242188 112.84375 244.664063 247.921875-.457031 39.03125-9.761719 75.308594-26.441406 107.917969-3.574219 6.988281-12.78125 9.984375-19.230469 5.515625-.042969-.027344-.082031-.054688-.121094-.082031-17.097656-11.917969-39.8125-11.917969-56.914062 0-17.097656 11.917968-39.8125 11.917968-56.910156 0-17.097657-11.917969-39.8125-11.917969-56.910157 0-17.097656 11.917968-39.8125 11.917968-56.910156 0-17.097656-11.917969-39.8125-11.917969-56.910156 0-17.101563 11.917968-39.816407 11.917968-56.914063 0-17.097656-11.917969-39.8125-11.917969-56.910156 0l-.121094.082031c-6.375 4.429687-15.214844 2.269531-18.777344-4.625zm0 0" fill="#4f66cf"/><path d="m26.457031 366.839844c6.8125-1.265625 13.421875-3.960938 19.355469-8.097656 17.097656-11.917969 39.8125-11.917969 56.910156 0 17.097656 11.917968 39.8125 11.917968 56.910156 0 17.097657-11.917969 39.8125-11.917969 56.910157 0 17.097656 11.917968 39.8125 11.917968 56.910156 0 17.101563-11.917969 39.816406-11.917969 56.914063 0 17.097656 11.917968 39.8125 11.917968 56.910156 0 17.097656-11.917969 39.8125-11.917969 56.910156 0 5.933594 4.136718 12.539062 6.832031 19.355469 8.097656-12.550781 24.691406-29.160157 46.96875-48.949219 65.957031-9.570312.21875-19.09375 3.1875-27.316406 8.917969-17.097656 11.917968-39.8125 11.917968-56.910156 0-17.097657-11.917969-39.8125-11.917969-56.914063 0-17.097656 11.917968-39.8125 11.917968-56.910156 0-17.097657-11.917969-39.8125-11.917969-56.910157 0-17.097656 11.917968-39.8125 11.917968-56.910156 0-8.222656-5.730469-17.746094-8.699219-27.316406-8.917969-19.789062-18.988281-36.402344-41.265625-48.949219-65.957031zm0 0" fill="#0ed1b2"/><path d="m426.027344 421.082031c-44.804688 49.105469-109.316406 79.917969-181.027344 79.917969s-136.222656-30.8125-181.027344-79.917969c13.175782-2.78125 27.234375-.167969 38.75 7.855469 17.097656 11.917969 39.8125 11.917969 56.910156 0 17.097657-11.917969 39.8125-11.917969 56.910157 0 17.097656 11.917969 39.8125 11.917969 56.910156 0 17.101563-11.917969 39.816406-11.917969 56.914063 0 17.097656 11.917969 39.8125 11.917969 56.910156 0 11.515625-8.023438 25.574218-10.636719 38.75-7.855469zm0 0" fill="#5de0c3"/><path d="m26.457031 366.839844c6.8125-1.265625 13.421875-3.960938 19.355469-8.097656 9.964844-6.945313 21.835938-9.835938 33.394531-8.683594 15.707031 37.742187 40.582031 70.703125 71.839844 96.121094-12.203125 5.316406-45.753906-5.929688-64.492187-11.191407-8.59375-2.414062-16.558594-7.320312-22.582032-13.90625-14.886718-16.277343-27.425781-34.386719-37.515625-54.242187zm0 0" fill="#0ab59e"/><path d="m275.195312 499.136719c-9.894531 1.214843-19.96875 1.863281-30.195312 1.863281-71.710938 0-136.222656-30.8125-181.027344-79.917969 13.175782-2.78125 27.234375-.167969 38.75 7.855469 11.199219 7.808594 24.808594 10.5 37.671875 8.078125 36.527344 33.335937 83.175781 55.753906 134.800781 62.121094zm0 0" fill="#0ed1b2"/><path d="m319.925781 490.207031c-17.992187-21.339843-19.300781-52.140625-3.1875-74.929687l45.363281-64.152344c2.296876-3.25 7.117188-3.25 9.414063 0l45.359375 64.152344c16.117188 22.789062 14.808594 53.589844-3.1875 74.929687-24.496094 29.058594-69.261719 29.058594-93.761719 0zm0 0" fill="#ade8f0"/><path d="m417.65625 416.40625c22.167969 32.878906-11.910156 75.589844-48.65625 60.691406-53.210938-21.578125-46.511719-69.953125-31.753906-90.820312l24.855468-35.15625c2.296876-3.246094 7.117188-3.246094 9.410157 0 .003906 0 45.890625 64.90625 46.144531 65.285156zm0 0" fill="#d3f1f5"/><path d="m373.878906 414.351562c-4.890625-10.910156-6.121094-30.144531-.839844-32.15625 7.433594-2.835937 21.914063 19.746094 24.582032 23.90625 5.429687 8.46875 15.785156 22.558594 6.566406 28.457032-12.628906 8.082031-22.453125-2.691406-30.308594-20.207032zm0 0" fill="#fff5f5"/><path d="m418 309.054688v2.671874c0 8.285157-6.714844 15-15 15h-78.910156c-8.28125 0-15-6.714843-15-15v-2.671874c0-8.265626 6.683594-14.964844 14.9375-15v-8.789063c0-28.710937-17.191406-53.464844-41.8125-64.558594-18.914063 18.109375-48.621094 29.78125-82.03125 29.78125-37.101563 0-69.632813-14.390625-87.894532-36.007812h-108.785156c4.308594-28.042969 14.15625-53.90625 27.390625-77.636719h79.121094c14.351563-18.738281 39.144531-32.554688 68.566406-37.160156v-79.851563c0-10.953125 8.878907-19.832031 19.832031-19.832031h3.535157c10.953125 0 19.832031 8.878906 19.832031 19.832031v79.855469c32.378906 5.066406 59.160156 21.289062 72.574219 42.957031 61.90625 17.871094 107.308593 75.039063 107.308593 142.621094v8.789063h1.335938c8.285156 0 15 6.714843 15 15zm0 0" fill="#fdcb6b"/><path d="m403 326.726562h-45.148438c-8.28125 0-15-6.714843-15-15v-2.671874c0-8.285157 6.71875-15 15-15h45.148438c8.285156 0 15 6.714843 15 15v2.671874c0 8.285157-6.714844 15-15 15zm-388.359375-154.839843h73.242187c4.792969 0 8.933594-3.398438 9.8125-8.109375 1.804688-9.671875 6.070313-18.769532 12.324219-26.929688h-79.148437c-7.121094 11.152344-11.78125 22.875-16.230469 35.039063zm363.304687 100.382812c-8.660156-.042969-16.136718-6.042969-18.667968-14.328125-8.148438-26.660156-24.019532-48.449218-48.078125-63.4375-4.292969-2.675781-9.878907-1.699218-13.078125 2.21875-8.34375 10.207032-27.355469 20.226563-69.621094 21.09375-57.128906 1.175782-103.464844-34.128906-103.464844-76.234375 0-8.132812 1.734375-15.96875 4.9375-23.316406 18.445313-12.566406 43.109375-20.246094 70.210938-20.246094 41.835937 0 77.871094 18.296875 94.171875 44.625 50.140625 14.476563 89.449219 54.734375 102.578125 105.425781 3.183594 12.296876-6.265625 24.265626-18.988282 24.199219zm0 0" fill="#fdf385"/><path d="m263.667969 158.726562c-4.613281 9.535157-21.816407 10.753907-38.425781 2.722657-16.613282-8.03125-26.339844-22.273438-21.726563-31.8125 4.609375-9.535157 21.8125-10.753907 38.425781-2.722657 16.609375 8.03125 26.339844 22.273438 21.726563 31.8125zm0 0" fill="#fdf7bd"/><path d="m314.535156 52.867188v3.535156c0 10.953125-8.878906 19.832031-19.832031 19.832031h-189.042969c-10.953125 0-19.832031-8.878906-19.832031-19.832031v-3.535156c0-10.953126 8.878906-19.832032 19.832031-19.832032h189.042969c10.953125 0 19.832031 8.878906 19.832031 19.832032zm0 0" fill="#fd4fb6"/><path d="m314.535156 52.867188v3.535156c0 10.953125-8.878906 19.832031-19.832031 19.832031h-149.835937c-10.953126 0-19.832032-8.878906-19.832032-19.832031v-3.535156c0-10.953126 8.878906-19.832032 19.832032-19.832032h149.835937c10.953125 0 19.832031 8.878906 19.832031 19.832032zm0 0" fill="#fd73c4"/></svg>