<svg height="512pt" viewBox="0 0 512 512" width="512pt" xmlns="http://www.w3.org/2000/svg"><path d="m512 256c0 4.429688-.113281 8.839844-.335938 13.21875-.625 12.246094-2.097656 24.25-4.386718 35.984375-1.703125 8.746094-3.855469 17.335937-6.414063 25.738281-.261719.835938-.515625 1.671875-.785156 2.507813-11.535156 36.382812-30.992187 69.242187-56.320313 96.558593-8.023437 8.652344-16.636718 16.75-25.765624 24.21875-20.210938 16.550782-43 30.050782-67.679688 39.84375-4.167969 1.648438-8.378906 3.195313-12.652344 4.628907-4.359375 1.460937-8.757812 2.808593-13.21875 4.042969-21.785156 6.039062-44.734375 9.257812-68.441406 9.257812-62.601562 0-119.953125-22.464844-164.425781-59.789062-35.558594-29.832032-62.890625-69.140626-78.09375-114.050782-2.5625-7.542968-4.777344-15.253906-6.625-23.09375-.1875-.804687-.378907-1.609375-.554688-2.410156-2.183593-9.636719-3.8125-19.480469-4.878906-29.5-.941406-8.921875-1.421875-17.980469-1.421875-27.15625 0-9.257812.492188-18.402344 1.453125-27.40625.835937-7.859375 2.027344-15.601562 3.550781-23.21875 4.054688-20.21875 10.480469-39.558594 18.996094-57.742188 1.820312-3.886718 3.742188-7.730468 5.757812-11.515624 6.835938-12.882813 14.734376-25.097657 23.585938-36.550782 46.808594-60.558594 120.183594-99.566406 202.65625-99.566406s155.835938 39.007812 202.65625 99.566406c8.851562 11.453125 16.761719 23.679688 23.585938 36.550782 4.910156 9.21875 9.257812 18.777343 13.019531 28.621093 4.984375 13.070313 8.933593 26.65625 11.722656 40.648438 1.546875 7.59375 2.726563 15.316406 3.5625 23.152343.960937 9.019532 1.453125 18.183594 1.453125 27.460938zm0 0" fill="#96d6d4"/><path d="m510.546875 228.539062c-.375 17.429688-.824219 30.585938-1.335937 34.054688-1.371094 9.246094-3.230469 18.328125-5.570313 27.21875-3.1875.753906-6.507813 1.148438-9.925781 1.148438-17.722656 0-32.945313-10.667969-39.613282-25.945313-6.664062 15.277344-21.890624 25.945313-39.632812 25.945313-17.722656 0-32.945312-10.667969-39.613281-25.945313-6.664063 15.277344-21.890625 25.945313-39.609375 25.945313-17.734375 0-32.957032-10.667969-39.632813-25.945313-6.667969 15.277344-21.890625 25.945313-39.613281 25.945313s-32.945312-10.667969-39.613281-25.945313c-6.675781 15.277344-21.898438 25.945313-39.632813 25.945313-17.71875 0-32.945312-10.667969-39.609375-25.945313-6.667969 15.277344-21.890625 25.945313-39.613281 25.945313-17.742188 0-32.96875-10.667969-39.632812-25.945313-6.667969 15.277344-21.890626 25.945313-39.613282 25.945313-3.417968 0-6.738281-.394532-9.925781-1.148438-2.339844-8.890625-4.199219-17.972656-5.570313-27.21875-.511718-3.460938-.960937-16.59375-1.335937-34 3.050781-28.671875 10.824219-55.925781 22.546875-80.960938 8.027344-17.144531 17.890625-33.246093 29.34375-48.066406 1.796875 2.476563 3.320312 5.144532 4.554688 7.972656 6.664062-15.273437 21.890624-25.953124 39.632812-25.953124 17.722656 0 32.945312 10.679687 39.613281 25.953124 6.664063-15.273437 21.890625-25.953124 39.609375-25.953124 17.734375 0 32.957032 10.679687 39.632813 25.953124 6.667969-15.273437 21.890625-25.953124 39.613281-25.953124s32.945312 10.679687 39.613281 25.953124c6.675781-15.273437 21.898438-25.953124 39.632813-25.953124 17.71875 0 32.945312 10.679687 39.609375 25.953124 6.667969-15.273437 21.890625-25.953124 39.613281-25.953124 17.742188 0 32.96875 10.679687 39.632812 25.953124 1.234376-2.828124 2.757813-5.496093 4.554688-7.972656 15.195312 19.65625 27.597656 41.578125 36.605469 65.171875 7.691406 20.167969 12.914062 41.554688 15.285156 63.800781zm0 0" fill="#21bf4a"/><path d="m506.984375 205.386719c-.972656 4.886719-2.089844 9.714843-3.34375 14.492187-3.1875.75-6.507813 1.148438-9.925781 1.148438-17.722656 0-32.945313-10.667969-39.613282-25.945313-6.664062 15.277344-21.890624 25.945313-39.632812 25.945313-17.722656 0-32.945312-10.667969-39.613281-25.945313-6.664063 15.277344-21.890625 25.945313-39.609375 25.945313-17.734375 0-32.957032-10.667969-39.632813-25.945313-6.667969 15.277344-21.890625 25.945313-39.613281 25.945313s-32.945312-10.667969-39.613281-25.945313c-6.675781 15.277344-21.898438 25.945313-39.632813 25.945313-17.71875 0-32.945312-10.667969-39.609375-25.945313-6.667969 15.277344-21.890625 25.945313-39.613281 25.945313-17.742188 0-32.96875-10.667969-39.632812-25.945313-6.667969 15.277344-21.890626 25.945313-39.613282 25.945313-3.417968 0-6.738281-.398438-9.925781-1.148438-1.253906-4.777344-2.382813-9.613281-3.355469-14.503906 4.054688-20.21875 10.480469-39.558594 18.996094-57.742188 1.820312-3.886718 3.742188-7.730468 5.757812-11.515624 12.644532 3.480468 22.96875 12.570312 28.140626 24.421874 6.664062-15.277343 21.890624-25.957031 39.632812-25.957031 17.722656 0 32.945312 10.679688 39.613281 25.957031 6.664063-15.277343 21.890625-25.957031 39.609375-25.957031 17.734375 0 32.957032 10.679688 39.632813 25.957031 6.667969-15.277343 21.890625-25.957031 39.613281-25.957031s32.945312 10.679688 39.613281 25.957031c6.675781-15.277343 21.898438-25.957031 39.632813-25.957031 17.71875 0 32.945312 10.679688 39.609375 25.957031 6.667969-15.277343 21.890625-25.957031 39.613281-25.957031 17.742188 0 32.96875 10.679688 39.632812 25.957031 5.171876-11.851562 15.496094-20.941406 28.140626-24.421874 4.910156 9.21875 9.257812 18.777343 13.019531 28.621093 4.984375 13.070313 8.933593 26.65625 11.722656 40.648438zm0 0" fill="#0a9327"/><path d="m512 185.113281v70.886719c0 4.429688-.113281 8.839844-.335938 13.21875-.625 12.246094-2.097656 24.25-4.386718 35.984375-1.703125 8.746094-3.855469 17.335937-6.414063 25.738281-.261719.835938-.515625 1.671875-.785156 2.507813h-195.71875l-11.328125-138.386719 13.835938-16.980469c6.476562-7.960937 16.140624-12.234375 26.007812-12.015625 3.644531.074219 7.300781.761719 10.84375 2.109375l23.40625 8.871094c8.789062 3.34375 18.589844 2.71875 26.894531-1.703125l38.148438-20.300781c7.746093-4.117188 16.8125-4.953125 25.171875-2.308594l37.921875 12.003906 2.371093.753907c8.546876 2.714843 14.367188 10.644531 14.367188 19.621093zm0 0" fill="#757177"/><path d="m366.65625 313.992188-19.457031 19.457031h-42.839844l-11.328125-138.386719 13.835938-16.980469c6.476562-7.960937 16.140624-12.234375 26.007812-12.015625l17.320312 39.144532c3.242188 7.328124 2.40625 15.824218-2.207031 22.378906l-4.539062 6.453125c-4.609375 6.550781-5.453125 15.039062-2.21875 22.363281zm0 0" fill="#2f373b"/><path d="m511.664062 269.21875c-.625 12.246094-2.097656 24.25-4.386718 35.984375-1.703125 8.746094-3.855469 17.335937-6.414063 25.738281-.417969-.367187-.816406-.742187-1.214843-1.128906-6.6875 6.582031-15.851563 10.65625-25.964844 10.65625-10.125 0-19.289063-4.074219-25.964844-10.65625-6.679688 6.582031-15.851562 10.65625-25.964844 10.65625-10.117187 0-19.289062-4.074219-25.96875-10.65625-6.675781 6.582031-15.839844 10.65625-25.964844 10.65625-20.425781 0-36.988281-16.5625-36.988281-36.988281 0-20.429688 16.5625-36.988281 36.988281-36.988281 10.125 0 19.289063 4.0625 25.964844 10.644531 6.679688-6.582031 15.851563-10.644531 25.96875-10.644531 10.113282 0 19.285156 4.0625 25.964844 10.644531 6.675781-6.582031 15.839844-10.644531 25.964844-10.644531 5.058594 0 9.875 1.011718 14.261718 2.851562 4.398438 1.839844 8.359376 4.503906 11.703126 7.792969 3.417968-3.375 7.492187-6.078125 12.015624-7.917969zm0 0" fill="#21bf4a"/><path d="m507.277344 305.203125c-5.257813 26.992187-14.753906 52.464844-27.761719 75.695313-9.960937 17.792968-21.996094 34.261718-35.757813 49.109374-8.023437 8.652344-16.636718 16.75-25.765624 24.21875l-17.617188-125.5625c-1.253906-8.90625 2.925781-17.691406 10.613281-22.351562l33.898438-20.554688c6.601562-4 14.804687-4.335937 21.722656-.886718zm0 0" fill="#757177"/><path d="m479.515625 380.898438c-9.960937 17.792968-21.996094 34.261718-35.757813 49.109374-8.023437 8.652344-16.636718 16.75-25.765624 24.21875l-17.617188-125.5625c-1.253906-8.90625 2.925781-17.691406 10.613281-22.351562l33.898438-20.554688c6.601562-4 14.804687-4.335937 21.722656-.886718l-11.597656 25.261718c-2.917969 6.355469-2.859375 13.683594.164062 19.996094zm0 0" fill="#2f373b"/><path d="m226.230469 195.0625v120.003906h-219.375c-.554688-2.339844-1.078125-4.691406-1.558594-7.050781-3.480469-16.800781-5.296875-34.191406-5.296875-52.015625v-92.054688c0-10.292968 6.875-19.320312 16.800781-22.058593l46.4375-12.777344c8.933594-4.222656 18.921875-4.566406 27.835938-1.445313l.019531.011719c5.183594 1.820313 9.988281 4.816407 14.003906 8.914063l17.84375 18.203125c4.527344 4.617187 10.117188 7.875 16.132813 9.589843 6.25 1.789063 12.96875 1.914063 19.46875.179688l8.976562-2.375c6.183594-1.640625 12.570313-1.609375 18.554688-.070312 6.25 1.609374 12.082031 4.867187 16.792969 9.582031zm0 0" fill="#757177"/><path d="m75.472656 262.308594 22.058594 28.652344-92.234375 17.054687c-3.480469-16.800781-5.296875-34.191406-5.296875-52.015625v-92.054688c0-10.292968 6.875-19.320312 16.800781-22.058593l46.4375-12.777344c8.933594-4.222656 18.921875-4.566406 27.835938-1.445313l.019531.011719-13.699219 28.726563c-4.148437 8.699218 2.195313 18.753906 11.832031 18.753906 9.71875 0 16.058594 10.199219 11.757813 18.914062l-26.878906 54.4375c-2.214844 4.484376-1.683594 9.835938 1.367187 13.800782zm0 0" fill="#2f373b"/><path d="m319.675781 221.71875v122.960938h-93.445312v-149.617188h66.800781c9.625 0 18.066406 5.109375 22.746094 12.769531 2.46875 4.042969 3.898437 8.796875 3.898437 13.886719zm0 0" fill="#0084a6"/><path d="m315.777344 207.832031h-89.546875v-12.769531h66.800781c9.625 0 18.066406 5.109375 22.746094 12.769531zm0 0" fill="#69b8d4"/><path d="m319.675781 299.519531v45.160157h-93.445312v-88.730469c0-20.429688 16.550781-24.273438 21.273437-4.546875 4.734375 19.726562 11.347656 35.402344 25.882813 35.402344 14.523437 0 1.808593-64.898438 21.328125-64.898438 19.515625 0 24.960937 77.613281 24.960937 77.613281zm0 0" fill="#69b8d4"/><path d="m443.757812 347.941406v82.066406c-5.546874 5.984376-11.390624 11.710938-17.480468 17.144532-5.121094 4.566406-10.417969 8.925781-15.894532 13.0625-18.265624 13.84375-38.441406 25.277344-60.070312 33.855468-3.375 1.335938-6.78125 2.601563-10.21875 3.792969-5.140625 1.796875-10.367188 3.417969-15.652344 4.878907h-27.230468v-188.75h112.597656c12.882812 0 24.097656 7.179687 29.84375 17.753906 2.621094 4.804687 4.105468 10.332031 4.105468 16.195312zm0 0" fill="#0084a6"/><path d="m439.652344 331.746094h-142.441406v-17.753906h112.597656c12.882812 0 24.097656 7.179687 29.84375 17.753906zm0 0" fill="#69b8d4"/><path d="m410.382812 460.214844c-18.265624 13.84375-38.441406 25.277344-60.070312 33.855468-3.375 1.335938-6.78125 2.601563-10.21875 3.792969-2.339844-31.472656-4.167969-85.253906 10.21875-88.847656 20.417969-5.101563 14.304688 56.171875 28.597656 56.171875 14.296875 0 9.195313-65.355469 23.492188-65.355469 9.445312 0 6.402344 38.773438 7.980468 60.382813zm0 0" fill="#69b8d4"/><path d="m275.59375 305.519531c0 20.425781-16.5625 36.988281-36.992188 36.988281-10.113281 0-19.289062-4.066406-25.964843-10.648437-6.675781 6.582031-15.839844 10.648437-25.964844 10.648437-5.058594 0-9.875-1.015624-14.265625-2.851562-4.398438-1.839844-8.355469-4.503906-11.699219-7.796875-6.679687 6.582031-15.84375 10.648437-25.957031 10.648437-10.125 0-19.289062-4.066406-25.964844-10.648437-6.675781 6.582031-15.851562 10.648437-25.964844 10.648437-10.125 0-19.289062-4.066406-25.96875-10.648437-6.675781 6.582031-15.839843 10.648437-25.964843 10.648437-6.300781 0-12.226563-1.566406-17.40625-4.347656-2.5625-7.542968-4.777344-15.253906-6.625-23.09375-.1875-.804687-.378907-1.609375-.554688-2.410156-2.183593-9.636719-3.8125-19.480469-4.878906-29.5 6.757813-8.890625 17.4375-14.628906 29.464844-14.628906 10.125 0 19.289062 4.066406 25.964843 10.648437 6.679688-6.582031 15.84375-10.648437 25.96875-10.648437 10.113282 0 19.289063 4.066406 25.964844 10.648437 6.675782-6.582031 15.839844-10.648437 25.964844-10.648437 5.058594 0 9.875 1.015625 14.261719 2.855468 4.398437 1.835938 8.351562 4.5 11.695312 7.792969 6.6875-6.582031 15.847657-10.648437 25.964844-10.648437 10.125 0 19.289063 4.066406 25.964844 10.648437 6.675781-6.582031 15.851562-10.648437 25.964843-10.648437 20.429688 0 36.992188 16.5625 36.992188 36.992187zm0 0" fill="#21bf4a"/><path d="m350.3125 345.914062v148.15625c-29.183594 11.566407-61 17.929688-94.3125 17.929688-10.074219 0-20-.585938-29.769531-1.714844-107.644531-12.464844-194.9375-91.699218-219.375-195.21875-.1875-.804687-.378907-1.609375-.554688-2.410156 2.539063-6.773438 8.964844-10.953125 15.789063-10.953125 2.027344 0 4.085937.375 6.089844 1.148437l60.667968 23.554688.753906.269531c6.027344 2.027344 12.726563.472657 17.261719-4.0625l31.648438-31.652343c3.867187-3.863282 9.320312-5.566407 14.597656-4.722657 1.011719.167969 2.027344.417969 3.007813.773438l58.285156 20.929687.148437.050782 45.253907 16.25c1.242187.449218 2.527343.742187 3.824218.878906 2.570313.292968 5.191406-.023438 7.65625-.921875l29.3125-10.71875c2.714844-.992188 5.597656-1.265625 8.398438-.824219 1.695312.257812 3.355468.792969 4.921875 1.574219l24.324219 12.164062c7.398437 3.6875 12.070312 11.253907 12.070312 19.519531zm0 0" fill="#757177"/><g fill="#2f373b"><path d="m186.085938 162.125-21.90625 91.289062c-1.683594 7.015626-11.824219 6.519532-12.816407-.625l-12.289062-88.40625c6.25 1.789063 12.96875 1.914063 19.46875.179688l8.976562-2.375c6.183594-1.640625 12.570313-1.609375 18.554688-.070312zm0 0"/><path d="m457.339844 152.734375-35.488282 46.140625c-5.128906 6.667969-14.65625 7.988281-21.402343 2.96875l-33.324219-24.796875c8.789062 3.34375 18.589844 2.71875 26.894531-1.703125l38.148438-20.300781c7.746093-4.117188 16.8125-4.953125 25.171875-2.308594zm0 0"/><path d="m226.230469 510.285156c-107.644531-12.464844-194.9375-91.699218-219.375-195.21875-.1875-.804687-.378907-1.609375-.554688-2.410156 2.539063-6.773438 8.964844-10.953125 15.789063-10.953125 2.027344 0 4.085937.375 6.089844 1.148437l33.707031 76.890626c3.863281 8.8125 13.207031 13.890624 22.707031 12.335937l25.457031-4.167969c8.742188-1.433594 17.449219 2.757813 21.785157 10.488282l33.089843 58.988281c4.058594 7.234375 11.984375 11.414062 20.246094 10.679687l13.421875-1.191406c10.769531-.957031 20.519531 6.390625 22.5625 17.011719zm0 0"/><path d="m148.78125 348.25-59.179688-21.574219c6.027344 2.027344 12.726563.472657 17.261719-4.0625l31.648438-31.652343c3.867187-3.863282 9.320312-5.566407 14.597656-4.722657l12.761719 46.242188c2.824218 10.25-7.101563 19.410156-17.089844 15.769531zm0 0"/><path d="m306.574219 340.109375-42.945313-14.988281c2.570313.292968 5.191406-.023438 7.65625-.921875l29.3125-10.71875c2.714844-.992188 5.597656-1.265625 8.398438-.824219l6.289062 18.859375c1.792969 5.371094-3.367187 10.457031-8.710937 8.59375zm0 0"/><path d="m222.148438 390.414062 51.164062 13.21875c9.28125 2.398438 12.503906 13.929688 5.8125 20.792969l-41.089844 42.144531c-7.074218 7.257813-19.398437 3.496094-21.210937-6.472656l-10.074219-55.371094c-1.632812-8.960937 6.578125-16.59375 15.398438-14.3125zm0 0"/></g><path d="m338.914062 489.117188c0 3.3125-.441406 6.519531-1.253906 9.582031-4.359375 1.460937-8.757812 2.808593-13.21875 4.042969-21.785156 6.039062-44.734375 9.257812-68.441406 9.257812-62.601562 0-119.953125-22.464844-164.425781-59.789062.867187-.0625 1.746093-.09375 2.632812-.09375 10.125 0 19.289063 4.074218 25.964844 10.65625 6.679687-6.582032 15.84375-10.65625 25.96875-10.65625 10.113281 0 19.289063 4.074218 25.964844 10.65625 6.675781-6.582032 15.839843-10.65625 25.964843-10.65625 5.058594 0 9.875 1.023437 14.261719 2.863281 4.402344 1.839843 8.351563 4.492187 11.695313 7.792969 6.6875-6.582032 15.851562-10.65625 25.964844-10.65625 10.125 0 19.289062 4.074218 25.964843 10.65625 6.675781-6.582032 15.851563-10.65625 25.964844-10.65625 20.429687 0 36.992187 16.570312 36.992187 37zm0 0" fill="#21bf4a"/><path d="m303.804688 294.457031c0-10.050781-2.164063-18.199219-4.828126-18.199219-2.667968 0-4.828124 8.148438-4.828124 18.199219s2.160156 18.199219 4.828124 18.199219c2.664063 0 4.828126-8.148438 4.828126-18.199219zm0 0" fill="#0084a6"/><path d="m269.359375 228.257812c0-10.050781-2.164063-18.199218-4.828125-18.199218-2.667969 0-4.828125 8.148437-4.828125 18.199218 0 10.050782 2.160156 18.199219 4.828125 18.199219 2.664062 0 4.828125-8.148437 4.828125-18.199219zm0 0" fill="#69b8d4"/><path d="m386.058594 373.183594c0-17.433594-3.375-31.566406-7.542969-31.566406s-7.546875 14.132812-7.546875 31.566406 3.378906 31.566406 7.546875 31.566406 7.542969-14.132812 7.542969-31.566406zm0 0" fill="#69b8d4"/><path d="m443.757812 405.953125v24.054687c-5.546874 5.984376-11.390624 11.710938-17.480468 17.144532 2.808594-31.710938-3.261719-79.234375 2.925781-79.234375 8.429687 0 14.554687 14.546875 14.554687 38.035156zm0 0" fill="#69b8d4"/></svg>